<?xml version="1.0" encoding="UTF-8"?>
<svg id="soundcloud" xmlns="http://www.w3.org/2000/svg" viewBox="0 0 321.14 321.14">
  <path id="orange" d="M321.14,160.57c0,88.68-71.89,160.57-160.56,160.57S0,249.24,0,160.57,71.89,0,160.57,0s160.56,71.88,160.56,160.57Z" fill="#ff5e00"/>
  <g id="cloud">
    <path d="M236.24,147.66c-3.38,0-6.63,.73-9.55,2.05-1.97-23.91-20.62-42.66-43.37-42.66-5.58,0-11.02,1.18-15.8,3.17-1.87,.77-2.35,1.57-2.38,3.12v84.2c.03,1.63,1.19,2.99,2.67,3.15,.06,.01,67.99,.03,68.43,.03,13.63,0,24.68-11.87,24.68-26.51s-11.05-26.54-24.68-26.54Z" fill="#fff"/>
    <path d="M105.13,175.91l-1.78-35.64c-.04-.91-.71-1.62-1.52-1.62s-1.48,.7-1.52,1.62l-1.57,35.64,1.57,23.04c.04,.9,.71,1.62,1.52,1.62s1.48-.72,1.52-1.63h0s1.78-23.03,1.78-23.03Z" fill="#fff"/>
    <path d="M97,175.91l-1.89-21.92c-.05-.81-.63-1.43-1.35-1.43s-1.31,.63-1.35,1.45l-1.67,21.91,1.67,23.03c.04,.81,.63,1.42,1.35,1.42s1.29-.6,1.35-1.42h0l1.89-23.03Z" fill="#fff"/>
    <path d="M113.33,175.93l-1.66-43.8c-.05-1.01-.8-1.8-1.7-1.8s-1.65,.79-1.69,1.8l-1.46,43.8,1.46,22.89c.04,1,.78,1.78,1.69,1.78s1.65-.79,1.7-1.8h0s1.66-22.88,1.66-22.88Z" fill="#fff"/>
    <path d="M69.91,195.71c.42,0,.77-.35,.82-.87l2.25-18.94-2.23-19.38c-.07-.51-.42-.87-.84-.87s-.78,.37-.84,.87l-1.99,19.38,1.99,18.94c.05,.51,.4,.87,.84,.87Z" fill="#fff"/>
    <path d="M77.79,199.11c.52,0,.94-.45,1.01-1.05l2.13-22.16-2.13-22.99c-.07-.6-.48-1.05-1.01-1.05s-.95,.45-1.01,1.05c0,.01-1.87,22.99-1.87,22.99l1.87,22.16c.05,.6,.48,1.05,1.01,1.05Z" fill="#fff"/>
    <path d="M128.49,126.89c-.04-1.22-.91-2.18-2.03-2.18s-2,.96-2.04,2.18l-1.27,49.04,1.27,22.51c.04,1.21,.93,2.16,2.04,2.16s1.99-.95,2.03-2.16h0l1.44-22.51-1.44-49.04Z" fill="#fff"/>
    <path d="M85.75,200c.61,0,1.11-.53,1.18-1.25l2-22.83-2-23.62c-.06-.72-.56-1.25-1.18-1.25s-1.14,.53-1.18,1.25l-1.78,23.62,1.78,22.83c.04,.72,.55,1.25,1.18,1.25Z" fill="#fff"/>
    <path d="M121.59,175.93l-1.54-47.45c-.04-1.11-.86-1.99-1.86-1.99s-1.83,.89-1.87,1.99c0,.01-1.37,47.45-1.37,47.45l1.37,22.65c.04,1.11,.85,1.98,1.87,1.98s1.82-.87,1.86-1.99v.03l1.54-22.66Z" fill="#fff"/>
    <path d="M138.3,175.93l-1.31-47.8c-.03-1.31-.99-2.35-2.21-2.35s-2.17,1.04-2.2,2.35l-1.16,47.8,1.16,22.3c.03,1.31,.99,2.36,2.2,2.36s2.18-1.05,2.21-2.36h0l1.31-22.3Z" fill="#fff"/>
    <path d="M62.49,163.08c-.42,0-.75,.35-.81,.84l-1.46,11.98,1.46,11.78c.06,.49,.39,.84,.81,.84s.73-.35,.8-.84l1.74-11.78-1.74-11.98c-.06-.49-.39-.84-.8-.84Z" fill="#fff"/>
    <path d="M155.29,175.94l-1.07-54.81c-.03-1.49-1.18-2.71-2.55-2.71s-2.54,1.22-2.55,2.71l-.97,54.79s.97,22.02,.97,22.02c.01,1.49,1.15,2.72,2.55,2.72s2.52-1.24,2.55-2.74v.03l1.07-22.02Z" fill="#fff"/>
    <path d="M160.1,113.27c-1.48,0-2.7,1.31-2.73,2.91l-1.11,59.77,1.11,21.7c.03,1.59,1.25,2.89,2.73,2.89s2.69-1.31,2.72-2.91h0s1.21-21.68,1.21-21.68l-1.21-59.77c-.03-1.6-1.25-2.91-2.72-2.91Z" fill="#fff"/>
    <path d="M146.77,175.93l-1.2-46.05c-.03-1.42-1.07-2.54-2.37-2.54s-2.35,1.12-2.38,2.54l-1.06,46.05,1.06,22.17c.03,1.39,1.06,2.51,2.38,2.51s2.34-1.12,2.37-2.53h0s1.2-22.16,1.2-22.16Z" fill="#fff"/>
  </g>
</svg>