<?xml version="1.0" encoding="UTF-8"?>
<svg id="pintrest" xmlns="http://www.w3.org/2000/svg" viewBox="0 0 277.84 277.84">
  <path id="red" d="M277.84,138.92c0,76.72-62.2,138.92-138.92,138.92S0,215.64,0,138.92,62.2,0,138.93,0s138.92,62.19,138.92,138.92Z" fill="#eb1a22"/>
  <g id="p">
    <path d="M99.28,224.64c.16,1.19,1.74,1.47,2.45,.58,1.02-1.28,14.15-16.97,18.61-32.64,1.26-4.44,7.24-27.42,7.24-27.42,3.59,6.61,14.05,12.42,25.19,12.42,33.13,0,55.61-29.22,55.61-68.35,0-29.59-25.9-57.14-65.26-57.14-48.96,0-73.66,33.97-73.66,62.3,0,17.15,6.72,32.41,21.1,38.11,2.37,.93,4.49,.03,5.16-2.5,.48-1.75,1.6-6.16,2.11-8.02,.68-2.5,.42-3.37-1.48-5.55-4.16-4.74-6.81-10.88-6.81-19.56,0-25.21,19.5-47.78,50.75-47.78,27.68,0,42.89,16.37,42.89,38.22,0,28.76-13.15,53.03-32.67,53.03-10.79,0-18.87-8.63-16.29-19.21,3.11-12.64,9.11-26.27,9.11-35.4,0-8.16-4.53-14.97-13.9-14.97-11.03,0-19.88,11.03-19.88,25.81,0,9.42,3.29,15.79,3.29,15.79,0,0-11.29,46.24-13.26,54.35-3.94,16.13-.6,35.91-.32,37.9Z" fill="#fff"/>
  </g>
</svg>