<?xml version="1.0" encoding="UTF-8"?>
<svg id="twitter" xmlns="http://www.w3.org/2000/svg" viewBox="0 0 347.87 347.84">
  <path id="blue" d="M347.87,173.92c0,96.05-77.87,173.92-173.92,173.92S0,269.97,0,173.92,77.87,0,173.94,0s173.92,77.86,173.92,173.92Z" fill="#00abe3"/>
  <g id="bird">
    <path d="M276.64,90.17c-8.62,5.04-18.17,8.69-28.34,10.67-8.12-8.53-19.72-13.87-32.55-13.87-24.63,0-44.6,19.66-44.6,43.91,0,3.44,.4,6.78,1.15,10-37.07-1.83-69.93-19.31-91.94-45.87-3.84,6.48-6.04,14.02-6.04,22.08,0,15.23,7.89,28.67,19.85,36.54-7.3-.23-14.19-2.2-20.2-5.49v.55c0,21.27,15.38,39.02,35.79,43.06-3.75,1-7.69,1.54-11.76,1.54-2.87,0-5.66-.28-8.39-.79,5.69,17.44,22.15,30.14,41.67,30.49-15.27,11.77-34.49,18.79-55.4,18.79-3.61,0-7.15-.21-10.64-.61,19.75,12.46,43.21,19.72,68.38,19.72,82.05,0,126.9-66.9,126.9-124.92,0-1.9-.03-3.8-.11-5.68,8.7-6.19,16.28-13.92,22.25-22.73-8,3.5-16.59,5.85-25.62,6.91,9.21-5.43,16.28-14.03,19.62-24.29Z" fill="#fff"/>
  </g>
</svg>