<?xml version="1.0" encoding="UTF-8"?>
<svg id="youtube" xmlns="http://www.w3.org/2000/svg" viewBox="0 0 488.34 488.34">
  <path id="red" d="M488.34,244.17c0,134.84-109.32,244.17-244.16,244.17S0,379.02,0,244.17,109.33,0,244.18,0s244.16,109.31,244.16,244.17Z" fill="#ff4d3f"/>
  <g id="youtubetext">
    <path d="M325.8,296.97c-2.44,0-4.21,.72-5.27,2.18-1.09,1.39-1.61,3.77-1.61,7.08v7.98h13.65v-7.98c0-3.31-.56-5.69-1.63-7.08-1.03-1.46-2.78-2.18-5.15-2.18Z" fill="#fff"/>
    <g>
      <path d="M272.57,296.71c-1.09,0-2.21,.24-3.28,.76-1.07,.51-2.13,1.33-3.18,2.42v49.2c1.25,1.27,2.46,2.25,3.66,2.81,1.19,.54,2.42,.84,3.74,.84,1.89,0,3.28-.56,4.17-1.69,.87-1.12,1.33-2.92,1.33-5.45v-40.78c0-2.68-.54-4.69-1.61-6.07-1.13-1.36-2.74-2.05-4.83-2.05Z" fill="#fff"/>
      <g>
        <path d="M341.02,234H147.32c-30.8,0-55.76,28.49-55.76,59.97v45.81c0,31.48,24.96,57.01,55.76,57.01h193.7c30.8,0,55.76-25.53,55.76-57.01v-45.81c0-31.48-24.96-59.97-55.76-59.97Zm-153.01,38.61h-18v91.48h-17.41v-91.48h-17.98v-15.56h53.39v15.56Zm50.87,91.48h-15.44v-8.65c-2.86,3.2-5.8,5.65-8.9,7.29-3.08,1.72-6.06,2.53-8.98,2.53-3.58,0-6.24-1.17-8.05-3.53-1.79-2.36-2.72-5.85-2.72-10.58v-66.03h15.44v60.59c0,1.87,.34,3.21,.95,4.04,.68,.86,1.73,1.26,3.18,1.26,1.11,0,2.56-.55,4.31-1.66,1.73-1.12,3.34-2.53,4.77-4.25v-59.99h15.44v78.98Zm56.04-16.3c0,5.58-1.21,9.86-3.64,12.86-2.4,2.99-5.92,4.46-10.49,4.46-3.04,0-5.72-.56-8.09-1.72-2.34-1.14-4.57-2.9-6.6-5.34v6.04h-15.6v-107.04h15.6v34.48c2.11-2.4,4.31-4.24,6.62-5.48,2.36-1.28,4.73-1.89,7.13-1.89,4.89,0,8.62,1.67,11.19,5.04,2.58,3.36,3.87,8.29,3.87,14.76v43.83Zm53.53-21.28h-29.53v14.88c0,4.15,.5,7.04,1.51,8.65,1.01,1.62,2.76,2.4,5.25,2.4s4.33-.68,5.36-2.04c.99-1.38,1.53-4.37,1.53-9.01v-3.6h15.88v4.05c0,8.1-1.91,14.19-5.82,18.3-3.84,4.07-9.62,6.1-17.31,6.1-6.93,0-12.4-2.16-16.35-6.51-3.95-4.31-5.96-10.29-5.96-17.9v-35.48c0-6.83,2.19-12.44,6.58-16.75,4.35-4.31,9.96-6.46,16.89-6.46s12.5,2,16.29,5.99c3.79,4,5.68,9.73,5.68,17.22v20.14Z" fill="#fff"/>
        <polygon points="149.39 91.56 172.68 162.79 172.68 209.51 192.25 209.51 192.25 160.58 215.04 91.56 195.13 91.56 183.03 138.72 181.8 138.72 169.08 91.56 149.39 91.56" fill="#fff"/>
        <path d="M223.45,126.29c-4.65,3.99-6.99,9.34-6.99,16.11v45.09c0,7.39,2.29,13.26,6.82,17.64,4.59,4.37,10.67,6.57,18.28,6.57s14.09-2.12,18.62-6.36c4.47-4.26,6.74-10.07,6.74-17.51v-44.94c0-6.62-2.3-12.08-6.88-16.28-4.61-4.2-10.49-6.31-17.7-6.31-7.89,0-14.19,2-18.88,5.98Zm25.75,15.44v47.41c0,2.33-.72,4.16-2.09,5.51-1.39,1.33-3.28,1.99-5.62,1.99s-4.07-.63-5.31-1.97c-1.23-1.31-1.85-3.14-1.85-5.53v-47.41c0-1.89,.68-3.41,1.97-4.61,1.35-1.17,3.06-1.74,5.19-1.74,2.3,0,4.15,.57,5.56,1.74,1.43,1.2,2.15,2.72,2.15,4.61Z" fill="#fff"/>
        <path d="M330.61,209.51V122.51h-17.39v66.04c-1.61,1.89-3.4,3.44-5.35,4.68-1.99,1.22-3.6,1.83-4.87,1.83-1.63,0-2.82-.46-3.54-1.4-.72-.91-1.11-2.4-1.11-4.45V122.51h-17.37v72.71c0,5.19,1.03,9.06,3.06,11.63,2.05,2.6,5.05,3.92,9.08,3.92,3.28,0,6.62-.94,10.08-2.78,3.5-1.86,6.84-4.57,10.02-8.12v9.63h17.39Z" fill="#fff"/>
      </g>
    </g>
  </g>
</svg>