<?xml version="1.0" encoding="UTF-8"?>
<svg id="skype" xmlns="http://www.w3.org/2000/svg" viewBox="0 0 283.91 283.9">
  <path id="blue" d="M283.91,141.95c0,78.4-63.56,141.95-141.95,141.95S0,220.35,0,141.95,63.56,0,141.96,0s141.95,63.55,141.95,141.95Z" fill="#00abf3"/>
  <g id="s">
    <path d="M227.52,142.88c0-46.07-37.89-83.43-84.63-83.43-4.93,0-9.76,.42-14.47,1.22-7.57-4.7-16.51-7.43-26.1-7.43-27.11,0-49.08,21.67-49.08,48.4,0,8.93,2.46,17.29,6.74,24.47-1.12,5.42-1.71,11.03-1.71,16.77,0,46.09,37.89,83.44,84.63,83.44,5.3,0,10.47-.48,15.49-1.39,6.92,3.66,14.82,5.74,23.21,5.74,27.11,0,49.08-21.66,49.08-48.39,0-7.72-1.84-15.01-5.1-21.49,1.28-5.78,1.94-11.76,1.94-17.91Zm-41.22,39.88c-3.91,5.46-9.7,9.79-17.2,12.86-7.42,3.04-16.31,4.59-26.43,4.59-12.16,0-22.35-2.11-30.31-6.27-5.68-3.03-10.38-7.12-13.94-12.19-3.59-5.1-5.41-10.18-5.41-15.07,0-3.06,1.19-5.71,3.54-7.87,2.31-2.15,5.28-3.24,8.83-3.24,2.91,0,5.41,.85,7.45,2.55,1.94,1.63,3.62,4.04,4.96,7.16,1.51,3.4,3.14,6.25,4.86,8.49,1.66,2.17,4.05,3.99,7.1,5.41,3.07,1.43,7.21,2.17,12.29,2.17,7,0,12.74-1.47,17.05-4.38,4.22-2.83,6.26-6.24,6.26-10.41,0-3.29-1.06-5.88-3.26-7.91-2.31-2.13-5.35-3.77-9.03-4.92-3.84-1.18-9.07-2.46-15.52-3.79-8.79-1.85-16.25-4.05-22.18-6.53-6.07-2.55-10.97-6.08-14.54-10.49-3.63-4.49-5.48-10.11-5.48-16.73s1.93-11.99,5.75-16.88c3.77-4.86,9.31-8.66,16.43-11.24,7.03-2.56,15.38-3.86,24.84-3.86,7.56,0,14.19,.87,19.74,2.56,5.58,1.71,10.28,4.03,13.98,6.87,3.73,2.86,6.5,5.93,8.22,9.11,1.76,3.22,2.65,6.42,2.65,9.51s-1.17,5.7-3.47,8.06c-2.32,2.37-5.25,3.58-8.69,3.58-3.14,0-5.59-.76-7.29-2.23-1.58-1.39-3.23-3.55-5.05-6.64-2.12-3.94-4.67-7.06-7.59-9.27-2.86-2.14-7.6-3.21-14.14-3.21-6.06,0-11,1.2-14.66,3.57-3.53,2.28-5.25,4.89-5.25,7.99,0,1.91,.55,3.49,1.7,4.86,1.19,1.46,2.89,2.71,5.04,3.78,2.23,1.1,4.52,1.98,6.81,2.6,2.36,.65,6.3,1.6,11.72,2.83,6.84,1.46,13.15,3.07,18.7,4.83,5.65,1.78,10.51,3.96,14.48,6.52,4.07,2.6,7.26,5.93,9.55,9.93,2.29,4,3.44,8.95,3.44,14.7,0,6.87-2,13.14-5.93,18.62Z" fill="#fff"/>
  </g>
</svg>