<?xml version="1.0" encoding="UTF-8"?>
<svg id="linkden" xmlns="http://www.w3.org/2000/svg" viewBox="0 0 369.86 369.84">
  <path id="blue" d="M369.86,184.92c0,102.14-82.8,184.92-184.92,184.92S0,287.06,0,184.92,82.8,0,184.94,0s184.92,82.8,184.92,184.92Z" fill="#0074b5"/>
  <g id="in">
    <rect x="69.35" y="146.4" width="53.94" height="154.1" fill="#fff"/>
    <path d="M96.32,123.28c14.88,0,26.97-12.08,26.97-26.97s-12.09-26.96-26.97-26.96-26.97,12.08-26.97,26.96,12.06,26.97,26.97,26.97Z" fill="#fff"/>
    <path d="M300.5,215.81c0-41.58-8.97-69.41-57.44-69.41-23.3,0-38.93,8.66-45.33,20.8h-.66v-20.8h-42.97v154.1h44.91v-76.38c0-20.14,3.81-39.65,28.73-39.65s26.53,23.03,26.53,40.94v75.09h46.23v-84.69Z" fill="#fff"/>
  </g>
</svg>