<?xml version="1.0" encoding="UTF-8"?>
<svg id="amazon" xmlns="http://www.w3.org/2000/svg" viewBox="0 0 210.84 210.84">
  <path id="yellow" d="M210.84,105.41c0,58.23-47.2,105.43-105.42,105.43S0,163.64,0,105.41,47.2,0,105.43,0s105.42,47.19,105.42,105.41Z" fill="#ffc114"/>
  <g id="a">
    <path d="M40.91,143.31c16.7,14.51,35,27.99,59.62,28,.48,0,.96,0,1.46-.02,15.66-.36,33.36-5.65,47.11-14.28l.08-.05c1.8-1.08,3.6-2.3,5.29-3.67,1.06-.78,1.78-2,1.78-3.27-.04-2.27-1.96-3.79-4.03-3.79-.65,0-1.32,.15-1.96,.45-.7,.28-1.43,.6-2.1,.89l-1.01,.42-1.3,.52h0c-14.14,5.74-28.99,9.11-42.73,9.41-.51,.02-1.01,.02-1.51,.02-21.61,0-39.25-10.02-57.03-19.9-.63-.33-1.26-.5-1.88-.5-.81,0-1.62,.3-2.22,.86-.6,.57-.95,1.38-.94,2.21,0,1.08,.57,2.07,1.38,2.7Z" fill="#fff"/>
    <path d="M171.28,138.21c-.05-1.37-.34-2.42-.92-3.29l-.05-.09-.07-.09c-.58-.64-1.14-.88-1.75-1.14-1.8-.7-4.43-1.06-7.58-1.07-2.27,0-4.79,.21-7.3,.76v-.16s-2.54,.84-2.54,.84l-.04,.03-1.43,.46v.06c-1.68,.7-3.21,1.57-4.62,2.59-.88,.67-1.62,1.54-1.66,2.88-.02,.73,.35,1.57,.97,2.07,.61,.5,1.32,.66,1.95,.66,.15,0,.29,0,.42-.03h.11s.1-.03,.1-.03c1.24-.27,3.05-.44,5.16-.74,1.81-.2,3.73-.35,5.4-.35,1.18,0,2.24,.08,2.97,.24,.37,.08,.63,.17,.79,.25,.05,.02,.09,.03,.11,.05,.03,.1,.08,.36,.07,.73,.03,1.39-.57,3.98-1.38,6.51-.79,2.53-1.76,5.06-2.39,6.75-.15,.39-.24,.82-.24,1.28-.02,.68,.26,1.49,.85,2.04,.57,.54,1.3,.76,1.93,.76h.03c.94-.02,1.72-.39,2.41-.92,6.43-5.79,8.67-15.03,8.76-20.22l-.03-.83h0Z" fill="#fff"/>
    <path d="M112.47,76.19c-3.78,.28-8.15,.58-12.51,1.15-6.69,.88-13.37,2.04-18.9,4.67-10.76,4.36-18.03,13.66-18.03,27.34,0,17.17,11.05,25.9,25.02,25.9,4.65,0,8.43-.59,11.92-1.45,5.53-1.75,10.17-4.94,15.71-10.77,3.19,4.36,4.07,6.4,9.59,11.06,1.45,.57,2.91,.57,4.07-.28,3.5-2.92,9.6-8.15,12.79-11.06,1.47-1.16,1.17-2.91,.29-4.35-3.19-4.08-6.39-7.57-6.39-15.43v-26.18c0-11.06,.88-21.24-7.27-28.8-6.68-6.1-17.16-8.44-25.3-8.44h-3.49c-14.82,.87-30.53,7.27-34.03,25.6-.58,2.33,1.17,3.19,2.33,3.48l16.28,2.03c1.75-.29,2.63-1.75,2.91-3.19,1.46-6.4,6.69-9.6,12.51-10.19h1.17c3.49,0,7.27,1.46,9.3,4.37,2.32,3.49,2.04,8.15,2.04,12.22v2.33Zm-3.2,34.62c-2.03,4.06-5.52,6.68-9.31,7.57-.58,0-1.45,.28-2.33,.28-6.39,0-10.17-4.95-10.17-12.21,0-9.32,5.53-13.68,12.51-15.72,3.78-.87,8.14-1.17,12.51-1.17v3.49c0,6.69,.28,11.93-3.2,17.75Z" fill="#fff"/>
  </g>
</svg>